<?xml version="1.0" encoding="utf-8"?>
<svg id="master-artboard" viewBox="0 0 796 192" version="1.1" xmlns="http://www.w3.org/2000/svg" x="0px" y="0px" style="enable-background:new 0 0 1400 980;" width="796px" height="192px"><rect id="ee-background" x="0" y="0" width="796" height="192" style="fill: rgb(255, 255, 255); fill-opacity: 0; pointer-events: none;"/><defs><radialGradient id="gradient-0" gradientUnits="objectBoundingBox" cx="0.5" cy="0.5" r="0.5">
                <stop offset="0" style="stop-color: #ffffff"/>
                <stop offset="1" style="stop-color: #cccccc"/>
              </radialGradient><style id="ee-google-fonts">@import url(https://fonts.googleapis.com/css?family=Bungee+Hairline:400);</style></defs>























































































































<g transform="matrix(2.298361778259278, 0, 0, 2.298361778259278, -772.69677734375, -252.57034403909256)"><g transform="matrix(1, 0, 0, 1, 0, 0)"><path class="st1" d="M373.6,144.2c-1.9-1.9-4.4-3-7.2-3c-2.8,0-5.4,1.1-7.2,3c-1.9,1.9-3,4.4-3,7.2c0,2.8,1.1,5.4,3,7.2&#10;&#9;&#9;c1.9,1.9,4.4,3,7.2,3c2.8,0,5.4-1.1,7.2-3c1.9-1.9,3-4.4,3-7.2C376.6,148.6,375.4,146,373.6,144.2z M366.3,136.1&#10;&#9;&#9;c4.2,0,8.1,1.7,10.8,4.5c2.8,2.8,4.5,6.6,4.5,10.8c0,4.2-1.7,8.1-4.5,10.8c-2.8,2.8-6.6,4.5-10.8,4.5c-4.2,0-8.1-1.7-10.8-4.5&#10;&#9;&#9;c-2.8-2.8-4.5-6.6-4.5-10.8c0-4.2,1.7-8.1,4.5-10.8C358.3,137.8,362.1,136.1,366.3,136.1z M344.7,134.8h5.1c0.2,0,0.4,0.2,0.4,0.4&#10;&#9;&#9;v2.3c0,0.2-0.2,0.4-0.4,0.4h-5.1c-0.2,0-0.4-0.2-0.4-0.4v-2.3C344.3,135,344.4,134.8,344.7,134.8z M341.6,129.5h49.9&#10;&#9;&#9;c0.3-1.3,1.5-2.3,2.8-2.3h1.2v-0.6c0-0.5,0.4-0.9,0.9-0.9h5.1c0.5,0,0.9,0.4,0.9,0.9v0.6h1.2c1.6,0,2.9,1.3,2.9,2.9v2.6v16.2v21.2&#10;&#9;&#9;c0,1.8-1.5,3.2-3.2,3.2h-12v-24.5v-1.2c0-0.7-0.6-1.2-1.2-1.2c-0.7,0-1.2,0.6-1.2,1.2v25.7h-47.3c-1.8,0-3.2-1.5-3.2-3.2v-37.4&#10;&#9;&#9;C338.3,131,339.8,129.5,341.6,129.5z" style="fill-rule: evenodd; clip-rule: evenodd; fill: rgb(51, 51, 51);" transform="matrix(1, 0, 0, 1, 0, 0)"/></g></g><path d="M 198.2039337158203 66.8899917602539 L 198.2039337158203 24.229991912841797 L 198.9939422607422 24.229991912841797 L 198.9939422607422 66.09999084472656 L 226.4839324951172 66.09999084472656 L 226.4839324951172 50.53999328613281 L 227.27394104003906 50.53999328613281 L 227.27394104003906 66.8899917602539 L 198.2039337158203 66.8899917602539 ZM 247.79164123535156 24.229991912841797 L 248.58163452148438 24.229991912841797 L 248.58163452148438 57.16999053955078 C 248.58163452148438 60.12332534790039 249.62164306640625 62.50666046142578 251.70164489746094 64.31999206542969 C 253.78164672851562 66.1399917602539 257.7449645996094 67.04999542236328 263.5916442871094 67.04999542236328 C 269.431640625 67.04999542236328 273.4082946777344 66.1399917602539 275.5216369628906 64.31999206542969 C 277.62164306640625 62.50666046142578 278.671630859375 60.12332534790039 278.671630859375 57.16999053955078 L 278.671630859375 24.229991912841797 L 279.4616394042969 24.229991912841797 L 279.4616394042969 57.16999053955078 C 279.4616394042969 60.329994201660156 278.3583068847656 62.899993896484375 276.1516418457031 64.87998962402344 C 273.93829345703125 66.85332489013672 269.75164794921875 67.83999633789062 263.5916442871094 67.83999633789062 C 257.42498779296875 67.83999633789062 253.24830627441406 66.85332489013672 251.0616455078125 64.87998962402344 C 248.8816375732422 62.899993896484375 247.79164123535156 60.329994201660156 247.79164123535156 57.16999053955078 L 247.79164123535156 24.229991912841797 ZM 302.831298828125 66.8899917602539 L 302.0412902832031 66.8899917602539 L 302.0412902832031 24.229991912841797 L 302.831298828125 24.229991912841797 L 302.831298828125 45.239990234375 L 319.9812927246094 45.239990234375 L 329.061279296875 24.229991912841797 L 329.9313049316406 24.229991912841797 L 320.84130859375 45.239990234375 L 324.081298828125 45.239990234375 C 327.29461669921875 45.239990234375 329.6912841796875 45.846656799316406 331.27130126953125 47.05998992919922 C 332.8512878417969 48.27332305908203 333.64129638671875 50.24999237060547 333.64129638671875 52.989990234375 L 333.64129638671875 66.8899917602539 L 332.8512878417969 66.8899917602539 L 332.8512878417969 52.989990234375 C 332.8512878417969 50.45665740966797 332.1146240234375 48.663326263427734 330.64129638671875 47.60999298095703 C 329.16796875 46.55665969848633 326.9812927246094 46.029991149902344 324.081298828125 46.029991149902344 L 302.831298828125 46.029991149902344 L 302.831298828125 66.8899917602539 ZM 355.33526611328125 50.05998992919922 L 355.33526611328125 52.50999450683594 L 386.145263671875 52.50999450683594 L 386.145263671875 50.05998992919922 C 386.145263671875 48.639991760253906 386.0252685546875 47.323326110839844 385.7852783203125 46.10999298095703 C 385.55194091796875 44.90332794189453 385.251953125 43.77332305908203 384.8852844238281 42.719993591308594 L 379.4252624511719 29.83999252319336 C 378.8519287109375 28.466659545898438 378.24859619140625 27.319992065429688 377.6152648925781 26.399993896484375 C 376.98193359375 25.479991912841797 375.9286193847656 25.01999282836914 374.45526123046875 25.01999282836914 L 366.71527099609375 25.01999282836914 C 365.1352844238281 25.01999282836914 364.0285949707031 25.479991912841797 363.395263671875 26.399993896484375 C 362.7619323730469 27.319992065429688 362.18194580078125 28.439990997314453 361.6552734375 29.759990692138672 L 356.59527587890625 42.719993591308594 C 356.2286071777344 43.77332305908203 355.9286193847656 44.90332794189453 355.6952819824219 46.10999298095703 C 355.45526123046875 47.323326110839844 355.33526611328125 48.639991760253906 355.33526611328125 50.05998992919922 M 386.145263671875 66.8899917602539 L 386.145263671875 53.299991607666016 L 355.33526611328125 53.299991607666016 L 355.33526611328125 66.8899917602539 L 354.5452880859375 66.8899917602539 L 354.5452880859375 50.05998992919922 C 354.5452880859375 48.5866584777832 354.665283203125 47.2299919128418 354.9052734375 45.989990234375 C 355.13861083984375 44.75666046142578 355.46527099609375 43.55998992919922 355.8852844238281 42.399993896484375 L 360.9452819824219 29.439990997314453 C 361.5252685546875 27.966659545898438 362.18194580078125 26.729991912841797 362.915283203125 25.729991912841797 C 363.6552734375 24.729991912841797 364.92193603515625 24.229991912841797 366.71527099609375 24.229991912841797 L 374.45526123046875 24.229991912841797 C 376.1952819824219 24.229991912841797 377.4186096191406 24.729991912841797 378.1252746582031 25.729991912841797 C 378.838623046875 26.729991912841797 379.5119323730469 27.993324279785156 380.145263671875 29.51999282836914 L 385.59527587890625 42.399993896484375 C 386.0152587890625 43.55998992919922 386.3419494628906 44.75666046142578 386.57525634765625 45.989990234375 C 386.8152770996094 47.2299919128418 386.9352722167969 48.5866584777832 386.9352722167969 50.05998992919922 L 386.9352722167969 66.8899917602539 L 386.145263671875 66.8899917602539 ZM 432.81591796875 24.229991912841797 L 432.81591796875 25.01999282836914 L 415.27593994140625 25.01999282836914 C 413.0625915527344 25.01999282836914 411.2959289550781 25.626659393310547 409.9759216308594 26.83999252319336 C 408.66259765625 28.04665756225586 408.00592041015625 29.573326110839844 408.00592041015625 31.41999053955078 L 408.00592041015625 37.899993896484375 C 408.00592041015625 39.739994049072266 408.37591552734375 41.029991149902344 409.1159362792969 41.76999282836914 C 409.8492736816406 42.503326416015625 410.8226013183594 42.976661682128906 412.0359191894531 43.18999481201172 L 428.7059326171875 46.58999252319336 C 430.2859191894531 46.90332794189453 431.5892639160156 47.5866584777832 432.6159362792969 48.639991760253906 C 433.642578125 49.69332504272461 434.15594482421875 51.58999252319336 434.15594482421875 54.329994201660156 L 434.15594482421875 58.90999221801758 C 434.15594482421875 61.2299919128418 433.3659362792969 63.139991760253906 431.7859191894531 64.6399917602539 C 430.2059326171875 66.1399917602539 428.0726013183594 66.8899917602539 425.38592529296875 66.8899917602539 L 405.7159423828125 66.8899917602539 L 405.7159423828125 66.09999084472656 L 425.38592529296875 66.09999084472656 C 427.8059387207031 66.09999084472656 429.7425842285156 65.42999267578125 431.1959228515625 64.08999633789062 C 432.642578125 62.743324279785156 433.3659362792969 61.016658782958984 433.3659362792969 58.90999221801758 L 433.3659362792969 54.329994201660156 C 433.3659362792969 51.856658935546875 432.9325866699219 50.15665817260742 432.06591796875 49.2299919128418 C 431.1925964355469 48.30998992919922 430.0192565917969 47.69332504272461 428.5459289550781 47.37998962402344 L 411.87591552734375 43.9799919128418 C 410.5092468261719 43.719993591308594 409.3892517089844 43.17999267578125 408.51593017578125 42.35999298095703 C 407.6492614746094 41.54665756225586 407.2159423828125 40.059993743896484 407.2159423828125 37.899993896484375 L 407.2159423828125 31.41999053955078 C 407.2159423828125 29.313323974609375 407.9526062011719 27.586658477783203 409.4259338378906 26.239994049072266 C 410.8992614746094 24.899993896484375 412.8492736816406 24.229991912841797 415.27593994140625 24.229991912841797 L 432.81591796875 24.229991912841797 ZM 455.7030029296875 66.8899917602539 L 455.7030029296875 59.3799934387207 L 456.4930114746094 59.3799934387207 L 456.4930114746094 66.8899917602539 L 455.7030029296875 66.8899917602539 ZM 482.14569091796875 24.85999298095703 L 511.2156982421875 57.56999206542969 L 511.2156982421875 24.229991912841797 L 512.0056762695312 24.229991912841797 L 512.0056762695312 66.8899917602539 L 511.2156982421875 66.8899917602539 L 511.2156982421875 58.74999237060547 L 481.3556823730469 25.259990692138672 C 481.3023681640625 25.20665740966797 481.2356872558594 25.153324127197266 481.15570068359375 25.099990844726562 C 481.07568359375 25.04665756225586 481.009033203125 25.01999282836914 480.9556884765625 25.01999282836914 C 480.9090270996094 25.01999282836914 480.8723449707031 25.04665756225586 480.8456726074219 25.099990844726562 C 480.81903076171875 25.153324127197266 480.8056945800781 25.20665740966797 480.8056945800781 25.259990692138672 L 480.8056945800781 66.8899917602539 L 480.01568603515625 66.8899917602539 L 480.01568603515625 25.099990844726562 C 480.01568603515625 24.779991149902344 480.1190185546875 24.54332733154297 480.32568359375 24.389991760253906 C 480.5390319824219 24.229991912841797 480.7490234375 24.149993896484375 480.9556884765625 24.149993896484375 C 481.16900634765625 24.149993896484375 481.3556823730469 24.203327178955078 481.51568603515625 24.309993743896484 C 481.66900634765625 24.41666030883789 481.8790283203125 24.599990844726562 482.14569091796875 24.85999298095703 ZM 557.1736450195312 66.8899917602539 L 532.0536499023438 66.8899917602539 L 532.0536499023438 66.09999084472656 L 544.2936401367188 66.09999084472656 L 544.2936401367188 25.01999282836914 L 532.0536499023438 25.01999282836914 L 532.0536499023438 24.229991912841797 L 557.1736450195312 24.229991912841797 L 557.1736450195312 25.01999282836914 L 545.0836791992188 25.01999282836914 L 545.0836791992188 66.09999084472656 L 557.1736450195312 66.09999084472656 L 557.1736450195312 66.8899917602539 ZM 604.228759765625 66.09999084472656 L 604.228759765625 66.8899917602539 L 577.5987548828125 66.8899917602539 L 577.5987548828125 24.229991912841797 L 604.228759765625 24.229991912841797 L 604.228759765625 25.01999282836914 L 578.3887329101562 25.01999282836914 L 578.3887329101562 44.84999084472656 L 597.8287353515625 44.84999084472656 L 597.8287353515625 45.639991760253906 L 578.3887329101562 45.639991760253906 L 578.3887329101562 66.09999084472656 L 604.228759765625 66.09999084472656 ZM 643.4691772460938 43.58999252319336 C 644.4158325195312 43.58999252319336 645.0991821289062 43.37665939331055 645.5191650390625 42.94999313354492 C 645.9458618164062 42.529991149902344 646.6058349609375 41.63665771484375 647.4991455078125 40.26999282836914 L 657.13916015625 25.569992065429688 C 657.4525146484375 25.04332733154297 657.8058471679688 24.689990997314453 658.1991577148438 24.509990692138672 C 658.5991821289062 24.323326110839844 659.0091552734375 24.229991912841797 659.42919921875 24.229991912841797 L 660.7691650390625 24.229991912841797 C 661.5091552734375 24.229991912841797 662.0491943359375 24.426658630371094 662.38916015625 24.819992065429688 C 662.7291870117188 25.21332550048828 662.899169921875 25.833324432373047 662.899169921875 26.67999267578125 L 662.899169921875 66.8899917602539 L 662.1091918945312 66.8899917602539 L 662.1091918945312 26.67999267578125 C 662.1091918945312 26.259990692138672 662.0191650390625 25.876659393310547 661.8391723632812 25.529991149902344 C 661.6525268554688 25.189990997314453 661.2958374023438 25.01999282836914 660.7691650390625 25.01999282836914 L 659.5891723632812 25.01999282836914 C 659.2158203125 25.01999282836914 658.899169921875 25.073326110839844 658.63916015625 25.17999267578125 C 658.3724975585938 25.286659240722656 658.08251953125 25.60332489013672 657.7691650390625 26.129993438720703 L 648.129150390625 40.65999221801758 C 647.1824951171875 42.079994201660156 646.4591674804688 43.05665969848633 645.9591674804688 43.58999252319336 C 645.4591674804688 44.10999298095703 644.629150390625 44.3699951171875 643.4691772460938 44.3699951171875 C 642.3091430664062 44.3699951171875 641.4791870117188 44.10999298095703 640.9791870117188 43.58999252319336 C 640.4791870117188 43.05665969848633 639.755859375 42.079994201660156 638.8091430664062 40.65999221801758 L 629.169189453125 26.129993438720703 C 628.8558349609375 25.60332489013672 628.552490234375 25.286659240722656 628.2591552734375 25.17999267578125 C 627.9724731445312 25.073326110839844 627.6425170898438 25.01999282836914 627.2691650390625 25.01999282836914 L 626.0891723632812 25.01999282836914 C 625.5625 25.01999282836914 625.2191772460938 25.189990997314453 625.0591430664062 25.529991149902344 C 624.9058227539062 25.876659393310547 624.8291625976562 26.259990692138672 624.8291625976562 26.67999267578125 L 624.8291625976562 66.8899917602539 L 624.0291748046875 66.8899917602539 L 624.0291748046875 26.67999267578125 C 624.0291748046875 25.833324432373047 624.2025146484375 25.21332550048828 624.5491943359375 24.819992065429688 C 624.88916015625 24.426658630371094 625.4025268554688 24.229991912841797 626.0891723632812 24.229991912841797 L 627.4291381835938 24.229991912841797 C 627.8491821289062 24.229991912841797 628.2725219726562 24.323326110839844 628.6991577148438 24.509990692138672 C 629.119140625 24.689990997314453 629.48583984375 25.04332733154297 629.7991943359375 25.569992065429688 L 639.4391479492188 40.26999282836914 C 640.33251953125 41.63665771484375 640.9924926757812 42.529991149902344 641.419189453125 42.94999313354492 C 641.8391723632812 43.37665939331055 642.5225219726562 43.58999252319336 643.4691772460938 43.58999252319336 ZM 708.69970703125 66.8899917602539 L 683.5797119140625 66.8899917602539 L 683.5797119140625 66.09999084472656 L 695.8197021484375 66.09999084472656 L 695.8197021484375 25.01999282836914 L 683.5797119140625 25.01999282836914 L 683.5797119140625 24.229991912841797 L 708.69970703125 24.229991912841797 L 708.69970703125 25.01999282836914 L 696.6097412109375 25.01999282836914 L 696.6097412109375 66.09999084472656 L 708.69970703125 66.09999084472656 L 708.69970703125 66.8899917602539 ZM 755.7548217773438 66.09999084472656 L 755.7548217773438 66.8899917602539 L 729.1248168945312 66.8899917602539 L 729.1248168945312 24.229991912841797 L 755.7548217773438 24.229991912841797 L 755.7548217773438 25.01999282836914 L 729.914794921875 25.01999282836914 L 729.914794921875 44.84999084472656 L 749.3547973632812 44.84999084472656 L 749.3547973632812 45.639991760253906 L 729.914794921875 45.639991760253906 L 729.914794921875 66.09999084472656 L 755.7548217773438 66.09999084472656 ZM 800.2935791015625 66.09999084472656 L 800.2935791015625 66.8899917602539 L 787.0935668945312 66.8899917602539 C 781.9868774414062 66.8899917602539 778.6035766601562 66.09999084472656 776.9435424804688 64.51998901367188 C 775.2835693359375 62.93999099731445 774.4535522460938 60.33332443237305 774.4535522460938 56.69999313354492 L 774.4535522460938 34.579994201660156 C 774.4535522460938 30.83999252319336 775.296875 28.17999267578125 776.9835815429688 26.599990844726562 C 778.6702270507812 25.01999282836914 782.0402221679688 24.229991912841797 787.0935668945312 24.229991912841797 L 800.2935791015625 24.229991912841797 L 800.2935791015625 25.01999282836914 L 787.0935668945312 25.01999282836914 C 782.460205078125 25.01999282836914 779.326904296875 25.743324279785156 777.6935424804688 27.189990997314453 C 776.0602416992188 28.643325805664062 775.2435913085938 31.106658935546875 775.2435913085938 34.579994201660156 L 775.2435913085938 56.69999313354492 C 775.2435913085938 60.119991302490234 776.0335693359375 62.54332733154297 777.6135864257812 63.969993591308594 C 779.1935424804688 65.3899917602539 782.3535766601562 66.09999084472656 787.0935668945312 66.09999084472656 L 800.2935791015625 66.09999084472656 Z" transform="matrix(1, 0, 0, 1, -10.690109252929688, 76.34368896484375)" style="fill: rgb(51, 51, 51); white-space: pre; color: rgb(51, 51, 51); stroke-opacity: 1; stroke: rgb(0, 0, 0); stroke-width: 5; paint-order: stroke;"/></svg>